# xmcd CD database file
#
# Track frame offsets:
#	150
#	17799
#	46389
#	76816
#	107477
#	127940
#	148598
#	173880
#	192517
#
# Disc length: 2955 seconds
#
# Revision: 0
# Processed by: cddbd v1.5.2PL0 Copyright (c) Steve Scherf et al.
# Submitted via: CDex 1.70beta3
#
DISCID=700b8909
DTITLE=Kondo Toshinori - 夢宙
DYEAR=2016
DGENRE=Jazz
TTITLE0=彼方から
TTITLE1=ここに生まれて
TTITLE2=星空の海辺
TTITLE3=透きとおる風
TTITLE4=ささやく声
TTITLE5=抱かれて
TTITLE6=胡蝶の夢
TTITLE7=広がる空
TTITLE8=旅立ち
EXTD=YEAR: 2016
EXTT0=
EXTT1=
EXTT2=
EXTT3=
EXTT4=
EXTT5=
EXTT6=
EXTT7=
EXTT8=
PLAYORDER=
